<svg xmlns="http://www.w3.org/2000/svg" width="35.029" height="21.895" viewBox="0 0 35.029 21.895">
  <g id="Group_10" data-name="Group 10" transform="translate(0 0)">
    <g id="Group_9" data-name="Group 9" transform="translate(0 0)">
      <g id="Group_8" data-name="Group 8">
        <path fill="#121212" id="Path_2" data-name="Path 2" d="M14.411,105.876a5.254,5.254,0,0,0,1.653-1.213,4.712,4.712,0,0,0,1-3.146,5.384,5.384,0,0,0-.992-3.26q-1.655-2.22-5.612-2.277H0v21.354H9.754a15.252,15.252,0,0,0,3.059-.287,6.015,6.015,0,0,0,2.446-1.073,5.921,5.921,0,0,0,1.533-1.679,6.17,6.17,0,0,0,.966-3.4,5.6,5.6,0,0,0-.843-3.129A4.866,4.866,0,0,0,14.411,105.876Zm-10.1-6.188H9.027a8.307,8.307,0,0,1,2.56.333A1.916,1.916,0,0,1,12.749,102a2.011,2.011,0,0,1-.88,1.874,4.416,4.416,0,0,1-2.29.53H4.316Zm7.451,13.564a5.16,5.16,0,0,1-2.194.377H4.316v-5.695H9.645a5.562,5.562,0,0,1,2.168.359,2.29,2.29,0,0,1,1.377,2.292A2.684,2.684,0,0,1,11.766,113.252Z" transform="translate(0 -95.979)"/>
        <rect fill="#121212" id="Rectangle_3" data-name="Rectangle 3" width="9.277" height="2.658" transform="translate(22.385 0.996)"/>
        <path fill="#121212" id="Path_3" data-name="Path 3" d="M295.608,177.52a7.618,7.618,0,0,0-1.279-3.265,6.446,6.446,0,0,0-2.763-2.336,9.147,9.147,0,0,0-3.766-.74,7.794,7.794,0,0,0-5.723,2.189,8.494,8.494,0,0,0-2.2,6.3q0,4.378,2.446,6.321a8.786,8.786,0,0,0,5.638,1.942,7.847,7.847,0,0,0,6.023-2.3,5.181,5.181,0,0,0,1.55-2.855h-4.274a3.446,3.446,0,0,1-.863,1.086,3.578,3.578,0,0,1-2.321.723,4.291,4.291,0,0,1-2.31-.6,3.772,3.772,0,0,1-1.677-3.33h11.663A20.094,20.094,0,0,0,295.608,177.52Zm-11.418.409a4.28,4.28,0,0,1,1.117-2.443,3.366,3.366,0,0,1,2.5-.9,3.716,3.716,0,0,1,2.485.85,3.453,3.453,0,0,1,1.114,2.5Z" transform="translate(-260.723 -166.033)"/>
      </g>
    </g>
  </g>
</svg>
