<svg xmlns="http://www.w3.org/2000/svg" width="29.06" height="29.06" viewBox="0 0 29.06 29.06">
  <path fill="#121212" id="Path_4" data-name="Path 4" d="M14.53,0a14.53,14.53,0,1,0,14.53,14.53A14.546,14.546,0,0,0,14.53,0ZM24,6.854a12.135,12.135,0,0,1,2.719,7.3,20.51,20.51,0,0,0-8.173-.079c-.437-1.023-.89-2-1.347-2.918A24.061,24.061,0,0,0,24,6.854ZM22.362,5.19a21.664,21.664,0,0,1-6.245,3.9A55.989,55.989,0,0,0,11.987,2.6,12.167,12.167,0,0,1,22.362,5.19ZM9.631,3.364a53.4,53.4,0,0,1,4.251,6.552A39,39,0,0,1,2.67,11.692,12.243,12.243,0,0,1,9.631,3.364ZM2.346,14.031h.069a42.191,42.191,0,0,0,7.4-.683,35.941,35.941,0,0,0,5.178-1.335c.423.842.843,1.731,1.25,2.662A21.984,21.984,0,0,0,10.53,17.5a25.7,25.7,0,0,0-5.3,4.9,12.139,12.139,0,0,1-2.894-7.875C2.333,14.363,2.339,14.2,2.346,14.031ZM6.908,24.043a23.459,23.459,0,0,1,5.014-4.663,19.562,19.562,0,0,1,5.2-2.556,45.387,45.387,0,0,1,2.45,8.809,12.158,12.158,0,0,1-12.664-1.59Zm14.81.333a48.358,48.358,0,0,0-2.293-8.106,18.382,18.382,0,0,1,7.139.241A12.21,12.21,0,0,1,21.718,24.376Z" transform="translate(0 -0.001)"/>
</svg>
