<svg xmlns="http://www.w3.org/2000/svg" width="29.06" height="21.795" viewBox="0 0 29.06 21.795">
  <path fill="#121212" id="Path_8" data-name="Path 8" d="M26.336,59.882H2.724A2.727,2.727,0,0,0,0,62.606V78.953a2.727,2.727,0,0,0,2.724,2.724H26.336a2.727,2.727,0,0,0,2.724-2.724V62.606A2.727,2.727,0,0,0,26.336,59.882Zm0,1.816a.9.9,0,0,1,.348.07L14.53,72.3,2.376,61.769a.9.9,0,0,1,.348-.07Zm0,18.162H2.724a.909.909,0,0,1-.908-.908V63.687l12.119,10.5a.909.909,0,0,0,1.19,0l12.119-10.5V78.953A.909.909,0,0,1,26.336,79.861Z" transform="translate(0 -59.882)"/>
</svg>
