<svg xmlns="http://www.w3.org/2000/svg" width="29.06" height="29.06" viewBox="0 0 29.06 29.06">
  <g id="Group_11" data-name="Group 11" transform="translate(0 0)">
    <path fill="#121212" id="Path_5" data-name="Path 5" d="M27.263,27.463h.007V16.8c0-5.214-1.122-9.23-7.218-9.23a6.328,6.328,0,0,0-5.7,3.132h-.085V8.061H8.489v19.4h6.018V17.855c0-2.529.479-4.975,3.612-4.975,3.086,0,3.132,2.887,3.132,5.138v9.446Z" transform="translate(1.79 1.597)"/>
    <path fill="#121212" id="Path_6" data-name="Path 6" d="M.4,7.977H6.421v19.4H.4Z" transform="translate(0.083 1.682)"/>
    <path fill="#121212" id="Path_7" data-name="Path 7" d="M3.49,0a3.506,3.506,0,1,0,3.49,3.49A3.491,3.491,0,0,0,3.49,0Z" transform="translate(0 0)"/>
  </g>
</svg>
