<svg id="Group_7" data-name="Group 7" xmlns="http://www.w3.org/2000/svg" width="29.06" height="23.611" viewBox="0 0 29.06 23.611">
  <g id="Group_6" data-name="Group 6">
    <path fill="#121212" id="Path_1" data-name="Path 1" d="M29.06,50.8a12.421,12.421,0,0,1-3.433.941,5.924,5.924,0,0,0,2.621-3.293,11.906,11.906,0,0,1-3.778,1.442,5.957,5.957,0,0,0-10.305,4.074,6.135,6.135,0,0,0,.138,1.359,16.863,16.863,0,0,1-12.28-6.232,5.959,5.959,0,0,0,1.831,7.962,5.883,5.883,0,0,1-2.692-.734v.065a5.985,5.985,0,0,0,4.773,5.854,5.946,5.946,0,0,1-1.562.2,5.268,5.268,0,0,1-1.128-.1,6.014,6.014,0,0,0,5.567,4.15,11.971,11.971,0,0,1-7.387,2.541A11.159,11.159,0,0,1,0,68.938a16.772,16.772,0,0,0,9.139,2.674C20.1,71.611,26.1,62.53,26.1,54.658c0-.263-.009-.518-.022-.77A11.885,11.885,0,0,0,29.06,50.8Z" transform="translate(0 -48)"/>
  </g>
</svg>
